<?xml version="1.0" standalone="no"?>
<!DOCTYPE svg PUBLIC "-//W3C//DTD SVG 20010904//EN"
 "http://www.w3.org/TR/2001/REC-SVG-20010904/DTD/svg10.dtd">
<svg version="1.0" xmlns="http://www.w3.org/2000/svg"
 width="200.000000pt" height="200.000000pt" viewBox="0 0 200.000000 200.000000"
 preserveAspectRatio="xMidYMid meet">

<g transform="translate(0.000000,200.000000) scale(0.100000,-0.100000)"
fill="#000000" stroke="none">
<path d="M749 1747 c-321 -111 -529 -403 -529 -742 0 -125 23 -224 80 -340 58
-118 128 -207 219 -276 324 -246 753 -219 1037 65 233 233 298 561 167 836
-47 98 -166 220 -268 272 -109 56 -175 72 -295 72 -114 -1 -192 -21 -278 -71
-93 -55 -205 -179 -261 -290 -31 -63 -26 -62 23 4 162 220 430 292 661 179
169 -84 275 -257 275 -451 0 -263 -179 -493 -437 -560 -73 -19 -212 -19 -283
0 -265 70 -433 289 -447 581 -16 320 127 581 393 720 82 43 66 43 -57 1z"/>
<path d="M548 1044 c33 -23 26 -65 -12 -79 -24 -8 -31 -6 -48 15 -13 15 -17
33 -14 49 l5 26 -11 -24 c-27 -53 53 -108 96 -66 31 31 15 95 -23 95 -11 0 -8
-5 7 -16z"/>
<path d="M641 1003 c1 -32 4 -48 6 -35 6 28 34 29 51 1 7 -12 16 -18 19 -15 3
3 0 12 -7 20 -10 13 -9 19 4 31 25 26 4 55 -39 55 l-35 0 1 -57z m58 38 c19
-12 6 -41 -18 -41 -23 0 -35 15 -27 35 6 17 24 19 45 6z"/>
<path d="M793 1005 c0 -33 2 -45 4 -27 2 18 2 45 0 60 -2 15 -4 0 -4 -33z"/>
<path d="M871 1003 c1 -41 3 -50 8 -33 5 17 16 27 36 31 l30 7 -33 1 c-47 1
-41 34 8 42 l35 6 -42 2 -43 1 1 -57z"/>
<path d="M1008 1054 c-5 -4 -8 -29 -8 -56 l0 -48 43 2 c36 1 37 2 10 5 -31 4
-32 6 -35 55 -2 27 -6 46 -10 42z"/>
<path d="M1141 1008 c-12 -28 -19 -53 -16 -56 2 -3 7 3 11 12 8 21 60 21 68 0
4 -9 9 -14 12 -11 7 7 -36 107 -46 107 -4 0 -17 -23 -29 -52z m43 6 c9 -23 8
-24 -14 -24 -11 0 -20 2 -20 4 0 12 13 36 20 36 4 0 11 -7 14 -16z"/>
<path d="M1277 1054 c-12 -12 -8 -106 4 -98 6 3 9 19 7 35 -5 34 7 38 23 7
l11 -21 19 24 19 24 0 -37 c0 -21 5 -38 10 -38 6 0 10 25 10 55 0 60 -9 69
-30 30 -17 -32 -31 -32 -51 0 -8 14 -18 22 -22 19z"/>
<path d="M1447 1053 c-4 -3 -7 -28 -7 -55 l0 -48 43 1 c34 2 36 3 12 6 -51 8
-57 42 -7 44 27 1 27 1 -3 8 -16 3 -29 10 -27 14 1 4 2 11 2 16 0 6 15 12 33
14 l32 4 -36 1 c-20 1 -39 -1 -42 -5z"/>
</g>
</svg>
